<mxfile host="65bd71144e">
    <diagram id="lwLpfzd5iNIAl7eqweWb" name="Page-1">
        <mxGraphModel dx="1135" dy="614" grid="1" gridSize="10" guides="1" tooltips="1" connect="1" arrows="1" fold="1" page="1" pageScale="1" pageWidth="850" pageHeight="1100" math="0" shadow="0">
            <root>
                <mxCell id="0"/>
                <mxCell id="1" parent="0"/>
                <mxCell id="431" value="" style="edgeStyle=none;html=1;" edge="1" parent="1" source="423" target="430">
                    <mxGeometry relative="1" as="geometry"/>
                </mxCell>
                <mxCell id="434" value="" style="edgeStyle=none;html=1;" edge="1" parent="1" source="423" target="433">
                    <mxGeometry relative="1" as="geometry"/>
                </mxCell>
                <mxCell id="423" value="Start the program" style="rounded=0;whiteSpace=wrap;html=1;" vertex="1" parent="1">
                    <mxGeometry x="20" y="20" width="120" height="60" as="geometry"/>
                </mxCell>
                <mxCell id="427" value="" style="edgeStyle=none;html=1;" edge="1" parent="1" source="424" target="426">
                    <mxGeometry relative="1" as="geometry"/>
                </mxCell>
                <mxCell id="424" value="Run the formula" style="rounded=0;whiteSpace=wrap;html=1;" vertex="1" parent="1">
                    <mxGeometry x="20" y="200" width="120" height="60" as="geometry"/>
                </mxCell>
                <mxCell id="426" value="Display the result" style="rounded=0;whiteSpace=wrap;html=1;" vertex="1" parent="1">
                    <mxGeometry x="20" y="290" width="120" height="60" as="geometry"/>
                </mxCell>
                <mxCell id="432" value="" style="edgeStyle=none;html=1;" edge="1" parent="1" source="430" target="424">
                    <mxGeometry relative="1" as="geometry"/>
                </mxCell>
                <mxCell id="430" value="Get the user input" style="rounded=0;whiteSpace=wrap;html=1;" vertex="1" parent="1">
                    <mxGeometry x="20" y="110" width="120" height="60" as="geometry"/>
                </mxCell>
                <mxCell id="436" value="" style="edgeStyle=none;html=1;" edge="1" parent="1" source="433" target="435">
                    <mxGeometry relative="1" as="geometry"/>
                </mxCell>
                <mxCell id="433" value="Add new game&amp;nbsp;&lt;div&gt;&lt;span style=&quot;background-color: transparent;&quot;&gt;button&lt;/span&gt;&lt;/div&gt;" style="rounded=0;whiteSpace=wrap;html=1;" vertex="1" parent="1">
                    <mxGeometry x="180" y="20" width="120" height="60" as="geometry"/>
                </mxCell>
                <mxCell id="438" value="" style="edgeStyle=none;html=1;" edge="1" parent="1" source="435" target="437">
                    <mxGeometry relative="1" as="geometry"/>
                </mxCell>
                <mxCell id="435" value="Save the HTML data into a variable" style="rounded=0;whiteSpace=wrap;html=1;" vertex="1" parent="1">
                    <mxGeometry x="180" y="110" width="120" height="60" as="geometry"/>
                </mxCell>
                <mxCell id="437" value="Duplicate the HTML data and display it on the page" style="rounded=0;whiteSpace=wrap;html=1;" vertex="1" parent="1">
                    <mxGeometry x="180" y="200" width="120" height="60" as="geometry"/>
                </mxCell>
            </root>
        </mxGraphModel>
    </diagram>
</mxfile>